# xmcd
#
# Track frame offsets: 
#        182
#        14630
#        34670
#        45595
#
# Disc length: 858 seconds
#
# Revision: 0
# Processed by: cddbd v1.4PL0 Copyright (c) Steve Scherf et al.
# Submitted via: ExactAudioCopy v0.90b4
#
DISCID=2a035804
DTITLE=The Cheap Seats - From Where I Stand
DYEAR=1997
DGENRE=
TTITLE0=From Where I Stand
TTITLE1=Somethin' In The Water
TTITLE2=Beer, Whiskey, Women
TTITLE3=Sweet Maria
EXTD=
EXTT0=
EXTT1=
EXTT2=
EXTT3=
PLAYORDER=
